<svg width="20" height="20" viewBox="0 0 20 20" fill="none" xmlns="http://www.w3.org/2000/svg">
<mask id="mask0_2228_15886" style="mask-type:alpha" maskUnits="userSpaceOnUse" x="0" y="0" width="20" height="20">
<rect width="20" height="20" fill="#D9D9D9"/>
</mask>
<g mask="url(#mask0_2228_15886)">
<path d="M4.16667 17.5C3.70833 17.5 3.31583 17.3369 2.98917 17.0108C2.66306 16.6842 2.5 16.2917 2.5 15.8333V5.41667C2.5 5.20833 2.53472 5.02083 2.60417 4.85417C2.67361 4.6875 2.76389 4.52778 2.875 4.375L4.04167 2.95833C4.15278 2.80556 4.29167 2.69083 4.45833 2.61417C4.625 2.53806 4.80556 2.5 5 2.5H15C15.1944 2.5 15.375 2.53806 15.5417 2.61417C15.7083 2.69083 15.8472 2.80556 15.9583 2.95833L17.125 4.375C17.2361 4.52778 17.3264 4.6875 17.3958 4.85417C17.4653 5.02083 17.5 5.20833 17.5 5.41667V15.8333C17.5 16.2917 17.3369 16.6842 17.0108 17.0108C16.6842 17.3369 16.2917 17.5 15.8333 17.5H4.16667ZM4.5 5H15.5L14.7917 4.16667H5.20833L4.5 5ZM4.16667 6.66667V15.8333H15.8333V6.66667H4.16667ZM10 15L13.3333 11.6667L12.1667 10.5L10.8333 11.8333V8.33333H9.16667V11.8333L7.83333 10.5L6.66667 11.6667L10 15Z" fill="#FEEEE2"/>
</g>
</svg>
