<svg width="20" height="20" viewBox="0 0 20 20" fill="none" xmlns="http://www.w3.org/2000/svg">
<mask id="mask0_2635_14667" style="mask-type:alpha" maskUnits="userSpaceOnUse" x="0" y="0" width="20" height="20">
<rect width="20" height="20" fill="#D9D9D9"/>
</mask>
<g mask="url(#mask0_2635_14667)">
<path d="M5.83398 17.5C5.37565 17.5 4.98343 17.3369 4.65732 17.0108C4.33065 16.6842 4.16732 16.2917 4.16732 15.8333V5H3.33398V3.33333H7.50065V2.5H12.5007V3.33333H16.6673V5H15.834V15.8333C15.834 16.2917 15.6709 16.6842 15.3448 17.0108C15.0182 17.3369 14.6257 17.5 14.1673 17.5H5.83398ZM14.1673 5H5.83398V15.8333H14.1673V5ZM7.50065 14.1667H9.16732V6.66667H7.50065V14.1667ZM10.834 14.1667H12.5007V6.66667H10.834V14.1667Z" fill="#E90D0D"/>
</g>
</svg>
