<svg width="20" height="20" viewBox="0 0 20 20" fill="none" xmlns="http://www.w3.org/2000/svg">
<mask id="mask0_2164_13257" style="mask-type:alpha" maskUnits="userSpaceOnUse" x="0" y="0" width="20" height="20">
<rect width="20" height="20" fill="#D9D9D9"/>
</mask>
<g mask="url(#mask0_2164_13257)">
<path d="M5.83496 17.5C5.37663 17.5 4.98441 17.3369 4.65829 17.0108C4.33163 16.6842 4.16829 16.2917 4.16829 15.8333V5H3.33496V3.33333H7.50163V2.5H12.5016V3.33333H16.6683V5H15.835V15.8333C15.835 16.2917 15.6719 16.6842 15.3458 17.0108C15.0191 17.3369 14.6266 17.5 14.1683 17.5H5.83496ZM14.1683 5H5.83496V15.8333H14.1683V5ZM7.50163 14.1667H9.16829V6.66667H7.50163V14.1667ZM10.835 14.1667H12.5016V6.66667H10.835V14.1667Z" fill="#F98D3E"/>
</g>
</svg>
