<svg width="20" height="20" viewBox="0 0 20 20" fill="none" xmlns="http://www.w3.org/2000/svg">
<mask id="mask0_2164_13251" style="mask-type:alpha" maskUnits="userSpaceOnUse" x="0" y="0" width="20" height="20">
<rect width="20" height="20" fill="#D9D9D9"/>
</mask>
<g mask="url(#mask0_2164_13251)">
<path d="M4.16667 15.8337H5.33333L12.5208 8.64616L11.3542 7.47949L4.16667 14.667V15.8337ZM16.0833 7.43783L12.5417 3.93783L13.7083 2.77116C14.0278 2.45171 14.4203 2.29199 14.8858 2.29199C15.3508 2.29199 15.7431 2.45171 16.0625 2.77116L17.2292 3.93783C17.5486 4.25727 17.7153 4.64283 17.7292 5.09449C17.7431 5.5456 17.5903 5.93088 17.2708 6.25033L16.0833 7.43783ZM14.875 8.66699L6.04167 17.5003H2.5V13.9587L11.3333 5.12533L14.875 8.66699Z" fill="#F98D3E"/>
</g>
</svg>
