<svg width="84" height="84" viewBox="0 0 84 84" fill="none" xmlns="http://www.w3.org/2000/svg">
<circle cx="42" cy="42" r="42" fill="#204C94" fill-opacity="0.15"/>
<g clip-path="url(#clip0_2094_10187)">
<path d="M55.7109 37.7109C55.7109 30.1509 49.56 24 42 24C34.44 24 28.2891 30.1509 28.2891 37.7109C28.2881 39.5581 28.6615 41.3862 29.3866 43.0851C30.1116 44.7839 31.1734 46.3183 32.5078 47.5955V58.9453C32.5078 59.1251 32.5537 59.302 32.6412 59.459C32.7288 59.6161 32.855 59.7482 33.0079 59.8428C33.1609 59.9373 33.3355 59.9912 33.5151 59.9992C33.6948 60.0073 33.8735 59.9693 34.0343 59.8889L42 55.9057L49.9657 59.8889C50.1265 59.9693 50.3052 60.0073 50.4849 59.9992C50.6645 59.9912 50.8391 59.9373 50.9921 59.8428C51.145 59.7482 51.2713 59.6161 51.3588 59.459C51.4463 59.302 51.4922 59.1251 51.4922 58.9453V47.5955C52.8266 46.3183 53.8884 44.7839 54.6135 43.0851C55.3385 41.3862 55.7119 39.5581 55.7109 37.7109ZM30.3984 37.7109C30.3984 31.3125 35.6016 26.1094 42 26.1094C48.3984 26.1094 53.6016 31.3125 53.6016 37.7109C53.6016 44.1094 48.3984 49.3125 42 49.3125C35.6016 49.3125 30.3984 44.1094 30.3984 37.7109ZM49.3828 57.2388L42.4718 53.783C42.3253 53.7097 42.1638 53.6716 42 53.6716C41.8362 53.6716 41.6747 53.7097 41.5282 53.783L34.6172 57.2388V49.2598C36.8208 50.6715 39.383 51.4219 42 51.4219C44.6171 51.4219 47.1792 50.6715 49.3828 49.2598V57.2388Z" fill="#204C94"/>
<path d="M50.0759 31.7447C49.5938 31.2622 48.8705 31.2622 48.3884 31.7447L39.3482 40.7923L35.6116 37.0526C35.1295 36.5701 34.4062 36.5701 33.9241 37.0526C33.442 37.5352 33.442 38.259 33.9241 38.7415L38.5045 43.3256C38.7455 43.5669 38.9866 43.6875 39.3482 43.6875C39.7098 43.6875 39.9509 43.5669 40.192 43.3256L50.0759 33.4336C50.558 32.9511 50.558 32.2273 50.0759 31.7447Z" fill="#204C94"/>
</g>
<defs>
<clipPath id="clip0_2094_10187">
<rect width="36" height="36" fill="white" transform="translate(24 24)"/>
</clipPath>
</defs>
</svg>
