<svg width="84" height="84" viewBox="0 0 84 84" fill="none" xmlns="http://www.w3.org/2000/svg">
<circle cx="42" cy="42" r="42" fill="#EAB308" fill-opacity="0.15"/>
<path d="M25.3968 53.2093C25.2536 53.7123 25.3545 54.2526 25.6686 54.671C25.9843 55.0875 26.4775 55.3333 27 55.3333H42H57C57.5225 55.3333 58.0156 55.0875 58.3313 54.6708C58.6455 54.2525 58.7463 53.7121 58.6031 53.2091L55.96 43.9595C55.388 41.9583 53.6118 40.5398 51.564 40.3675L48.9565 32.1528C48.294 30.068 46.3783 28.6666 44.1908 28.6666H39.8093C37.6216 28.6666 35.706 30.068 35.0436 32.153L32.4361 40.3676C30.3883 40.54 28.612 41.9585 28.04 43.9596L25.3968 53.2093ZM43.04 43.9596L42 47.5991L40.96 43.9596C40.9308 43.858 40.8845 43.7653 40.8491 43.6666H43.1508C43.1156 43.7653 43.0691 43.8578 43.04 43.9596ZM50.3333 43.6666H51.152C51.8925 43.6666 52.5516 44.1631 52.7535 44.8743L54.7896 52H44.2101L46.2463 44.8743C46.4481 44.1631 47.1075 43.6666 47.848 43.6666H50.3333ZM38.2206 33.1621C38.442 32.4671 39.08 32 39.8091 32H44.1906C44.9198 32 45.5578 32.4671 45.7791 33.1621L48.0563 40.3333H47.848H36.152H35.9436L38.2206 33.1621ZM31.2465 44.8743C31.4481 44.1631 32.1075 43.6666 32.848 43.6666H33.6666H36.152C36.8925 43.6666 37.5516 44.1631 37.7535 44.8743L39.7896 52H29.2103L31.2465 44.8743Z" fill="#EAB308"/>
</svg>
