<svg width="84" height="84" viewBox="0 0 84 84" fill="none" xmlns="http://www.w3.org/2000/svg">
<circle cx="42" cy="42" r="42" fill="#84CC16" fill-opacity="0.15"/>
<path d="M31.3311 26.9956C28.9549 26.9956 27.001 28.9612 27.001 31.3374V52.6626C27.001 55.0388 28.9549 57.0044 31.3311 57.0044H52.668C55.0442 57.0044 56.9981 55.0388 56.9981 52.6626V31.3374C56.9981 28.9612 55.0442 26.9956 52.668 26.9956H31.3311ZM31.3311 29.9985H37.498V40.5044C37.5089 41.8327 39.1135 42.4926 40.0557 41.5561L42.0068 39.6196L43.9434 41.5561C44.8855 42.4926 46.4901 41.8328 46.501 40.5044V29.9985H52.668C53.4228 29.9985 53.998 30.5825 53.998 31.3374V52.6626C53.998 53.4175 53.4228 54.0044 52.668 54.0044H31.3311C30.5762 54.0044 30.0039 53.4175 30.0039 52.6626V31.3374C30.0039 30.5825 30.5762 29.9985 31.3311 29.9985ZM40.498 29.9985H43.501V36.8833L43.0586 36.4409C42.4735 35.8593 41.5285 35.8593 40.9434 36.4409L40.4981 36.8833L40.498 29.9985Z" fill="#84CC16"/>
</svg>
