<svg width="150" height="150" viewBox="0 0 150 150" fill="none" xmlns="http://www.w3.org/2000/svg">
<path d="M150 75C150 116.421 116.421 150 75 150C33.5786 150 0 116.421 0 75C0 33.5786 33.5786 0 75 0C116.421 0 150 33.5786 150 75ZM22.9298 75C22.9298 103.758 46.2424 127.07 75 127.07C103.758 127.07 127.07 103.758 127.07 75C127.07 46.2424 103.758 22.9298 75 22.9298C46.2424 22.9298 22.9298 46.2424 22.9298 75Z" fill="#CBECCD"/>
<path d="M150 75C150 116.421 116.421 150 75 150C33.5786 150 0 116.421 0 75C0 33.5786 33.5786 0 75 0C116.421 0 150 33.5786 150 75ZM22.9298 75C22.9298 103.758 46.2424 127.07 75 127.07C103.758 127.07 127.07 103.758 127.07 75C127.07 46.2424 103.758 22.9298 75 22.9298C46.2424 22.9298 22.9298 46.2424 22.9298 75Z" fill="#CBECCD"/>
<path d="M75 0C116.421 0 150 33.5786 150 75C150 116.421 116.421 150 75 150C33.5786 150 0 116.421 0 75C0 33.5786 33.5786 0 75 0ZM75 127.07C103.758 127.07 127.07 103.758 127.07 75C127.07 46.2424 103.758 22.9297 75 22.9297C46.2424 22.9297 22.9298 46.2424 22.9298 75C22.9298 103.758 46.2424 127.07 75 127.07Z" fill="url(#paint0_angular_1017_10847)"/>
<circle cx="138.5" cy="75.5" r="11.5" transform="rotate(-90 138.5 75.5)" fill="#1CA522"/>
<path d="M75 0C116.421 0 150 33.5786 150 75C150 116.421 116.421 150 75 150C33.5786 150 0 116.421 0 75C0 33.5786 33.5786 0 75 0ZM75 127.07C103.758 127.07 127.07 103.758 127.07 75C127.07 46.2424 103.758 22.9297 75 22.9297C46.2424 22.9297 22.9298 46.2424 22.9298 75C22.9298 103.758 46.2424 127.07 75 127.07Z" fill="url(#paint1_angular_1017_10847)"/>
<circle cx="138.5" cy="75.5" r="11.5" transform="rotate(-90 138.5 75.5)" fill="#10A016"/>
<defs>
<radialGradient id="paint0_angular_1017_10847" cx="0" cy="0" r="1" gradientUnits="userSpaceOnUse" gradientTransform="translate(75 75) scale(75)">
<stop stop-color="#0E9F14"/>
<stop offset="1" stop-color="#CBECCD" stop-opacity="0"/>
</radialGradient>
<radialGradient id="paint1_angular_1017_10847" cx="0" cy="0" r="1" gradientUnits="userSpaceOnUse" gradientTransform="translate(75 75) scale(75)">
<stop stop-color="#0E9F14"/>
<stop offset="1" stop-color="#CBECCD" stop-opacity="0"/>
</radialGradient>
</defs>
</svg>
