<svg width="24" height="24" viewBox="0 0 24 24" fill="none" xmlns="http://www.w3.org/2000/svg">
<path d="M4.8877 1.99707C3.30357 1.99707 2.00098 3.30745 2.00098 4.8916V19.1084C2.00098 20.6925 3.30357 22.0029 4.8877 22.0029H19.1123C20.6964 22.0029 21.999 20.6925 21.999 19.1084V4.8916C21.999 3.30745 20.6964 1.99707 19.1123 1.99707H4.8877ZM4.8877 3.99903H8.99902V11.0029C9.00624 11.8885 10.076 12.3284 10.7041 11.7041L12.0049 10.4131L13.2959 11.7041C13.924 12.3284 14.9937 11.8885 15.001 11.0029V3.99903H19.1123C19.6156 3.99903 19.999 4.38836 19.999 4.8916V19.1084C19.999 19.6117 19.6156 20.0029 19.1123 20.0029H4.8877C4.38445 20.0029 4.00293 19.6117 4.00293 19.1084V4.8916C4.00293 4.38836 4.38445 3.99903 4.8877 3.99903ZM10.999 3.99903H13.001V8.58887L12.7061 8.29395C12.316 7.90618 11.686 7.90618 11.2959 8.29395L10.999 8.58887L10.999 3.99903Z" fill="#C9C9C9"/>
</svg>
