<svg width="23" height="22" viewBox="0 0 23 22" fill="none" xmlns="http://www.w3.org/2000/svg">
<path d="M17.9165 10.0834H12.4165V4.58341C12.4165 4.3403 12.3199 4.10714 12.148 3.93523C11.9761 3.76333 11.743 3.66675 11.4998 3.66675C11.2567 3.66675 11.0236 3.76333 10.8517 3.93523C10.6797 4.10714 10.5832 4.3403 10.5832 4.58341V10.0834H5.08317C4.84006 10.0834 4.6069 10.18 4.43499 10.3519C4.26308 10.5238 4.1665 10.757 4.1665 11.0001C4.1665 11.2432 4.26308 11.4764 4.43499 11.6483C4.6069 11.8202 4.84006 11.9167 5.08317 11.9167H10.5832V17.4167C10.5832 17.6599 10.6797 17.893 10.8517 18.0649C11.0236 18.2368 11.2567 18.3334 11.4998 18.3334C11.743 18.3334 11.9761 18.2368 12.148 18.0649C12.3199 17.893 12.4165 17.6599 12.4165 17.4167V11.9167H17.9165C18.1596 11.9167 18.3928 11.8202 18.5647 11.6483C18.7366 11.4764 18.8332 11.2432 18.8332 11.0001C18.8332 10.757 18.7366 10.5238 18.5647 10.3519C18.3928 10.18 18.1596 10.0834 17.9165 10.0834Z" fill="#FBFBFB"/>
</svg>
